<?xml version="1.0" standalone="no"?>
<!DOCTYPE svg PUBLIC "-//W3C//DTD SVG 20010904//EN"
    "http://www.w3.org/TR/2001/REC-SVG-20010904/DTD/svg10.dtd">
<svg version="1.0" xmlns="http://www.w3.org/2000/svg"
     width="1379.000000pt" height="1280.000000pt" viewBox="0 0 1379.000000 1280.000000"
     preserveAspectRatio="xMidYMid meet">

  <g transform="translate(0.000000,1280.000000) scale(0.100000,-0.100000)"
     fill="#000000" stroke="none">
    <path d="M0 6400 l0 -6400 6895 0 6895 0 0 6400 0 6400 -6895 0 -6895 0 0
-6400z m6690 4076 c282 -26 733 -85 747 -99 6 -7 -16 -129 -44 -242 -84 -340
-264 -637 -536 -885 -291 -265 -560 -423 -1347 -790 -594 -277 -830 -411
-1085 -616 -522 -419 -709 -980 -580 -1742 54 -318 118 -513 276 -850 27 -57
49 -108 49 -114 0 -33 -180 222 -265 377 -264 479 -391 986 -371 1480 24 548
155 984 417 1385 364 556 920 949 1774 1254 85 30 62 33 -101 11 -556 -73
-1021 -273 -1402 -600 -453 -389 -741 -964 -812 -1617 -13 -122 -13 -472 0
-598 55 -528 246 -1058 543 -1505 77 -114 219 -297 295 -377 20 -21 32 -41 29
-45 -19 -18 -388 386 -551 601 -424 563 -650 1055 -751 1638 -36 209 -45 324
-45 568 0 246 9 363 46 565 132 738 509 1331 1094 1722 424 284 944 438 1660
493 168 13 755 4 960 -14z m3488 -227 c324 -35 586 -150 773 -338 126 -126
215 -279 266 -457 21 -73 26 -118 30 -247 5 -138 3 -169 -17 -253 -34 -149
-95 -260 -199 -364 -217 -218 -499 -329 -1026 -405 -320 -46 -551 -109 -781
-212 -519 -233 -935 -668 -1144 -1197 -174 -440 -152 -975 62 -1551 50 -133
104 -249 199 -424 39 -73 69 -134 66 -137 -15 -15 -893 852 -1181 1166 -38 41
-90 98 -115 125 -26 28 -114 127 -196 220 -202 230 -404 451 -455 500 -39 37
-42 38 -37 15 112 -552 141 -809 141 -1255 -1 -294 -9 -425 -45 -660 -153
-1019 -666 -1718 -1510 -2054 -144 -57 -317 -104 -475 -127 -153 -23 -482 -23
-629 0 -572 89 -999 370 -1219 800 -123 240 -174 496 -131 661 23 86 61 149
132 215 135 127 368 198 803 245 447 48 592 73 767 131 567 189 1011 526 1278
969 298 494 347 1135 135 1775 -57 173 -128 327 -286 630 -38 71 15 28 280
-231 121 -118 244 -236 274 -264 95 -88 570 -594 731 -780 143 -165 225 -263
330 -395 137 -172 191 -231 201 -225 10 6 4 60 -33 320 -30 209 -32 235 -31
525 1 969 225 1722 692 2330 94 122 319 343 444 436 193 144 366 231 647 328
269 92 611 168 856 189 94 8 313 6 403 -4z m-701 -2461 c289 -295 512 -578
721 -921 275 -448 422 -875 488 -1412 23 -187 23 -539 0 -730 -117 -975 -629
-1715 -1458 -2108 -96 -46 -344 -139 -416 -156 -20 -5 -72 -19 -116 -30 -117
-31 -383 -78 -536 -96 -542 -60 -1183 -39 -1810 61 -85 14 -155 26 -157 28 -2
1 6 52 17 112 98 545 400 958 958 1313 201 127 469 266 912 471 714 331 1009
510 1270 770 196 194 307 365 384 589 122 352 122 765 1 1265 -52 213 -78 282
-251 664 -89 197 187 -201 312 -451 123 -243 229 -568 269 -821 69 -439 27
-944 -112 -1355 -280 -831 -952 -1429 -2033 -1810 -99 -35 -83 -38 85 -16
1101 145 1889 815 2145 1825 172 678 82 1425 -255 2115 -125 257 -236 428
-417 646 -136 164 -132 159 -121 159 5 0 59 -51 120 -112z"/>
  </g>
</svg>
